<svg viewBox="0 0 1300 1070" xmlns="http://www.w3.org/2000/svg" font-family="'Segoe UI','Helvetica Neue',Arial,sans-serif">
<defs>
<marker id="ah-dark" markerWidth="10" markerHeight="10" refX="7.5" refY="4" orient="auto" markerUnits="userSpaceOnUse"><path d="M0,0 L8,4 L0,8 Z" fill="#232F3E"/></marker>
<marker id="ah-grey" markerWidth="10" markerHeight="10" refX="7.5" refY="4" orient="auto" markerUnits="userSpaceOnUse"><path d="M0,0 L8,4 L0,8 Z" fill="#8493a4"/></marker>
<marker id="ah-data" markerWidth="10" markerHeight="10" refX="7.5" refY="4" orient="auto" markerUnits="userSpaceOnUse"><path d="M0,0 L8,4 L0,8 Z" fill="#2E73B8"/></marker>
<marker id="ah-event" markerWidth="10" markerHeight="10" refX="7.5" refY="4" orient="auto" markerUnits="userSpaceOnUse"><path d="M0,0 L8,4 L0,8 Z" fill="#C026A8"/></marker>
<filter id="soft" x="-20%" y="-20%" width="140%" height="140%"><feDropShadow dx="0" dy="2" stdDeviation="3" flood-color="#0b1b33" flood-opacity="0.12"/></filter>
</defs>
<rect x="0" y="0" width="1300" height="1070" fill="#ffffff"/>
<text x="650.0" y="44" text-anchor="middle" font-size="25" font-weight="700" fill="#1d2733" letter-spacing="0.5">TOGGLEMASTER — Arquitetura de Microsserviços na AWS (EKS)</text>
<rect x="570" y="78" width="160" height="60" rx="12" fill="#ffffff" stroke="#232F3E" stroke-width="1.6" filter="url(#soft)"/>
<text x="650" y="104" text-anchor="middle" font-size="14" font-weight="700" fill="#1d2733">Clientes / Usuários</text>
<text x="650" y="123" text-anchor="middle" font-size="11" fill="#5b6b7e">browser · mobile · API</text>
<line x1="650" y1="138" x2="650" y2="178" stroke="#232F3E" stroke-width="1.8" marker-end="url(#ah-dark)"/>
<rect x="660" y="148" width="50" height="18" rx="9" fill="#eef3fb" stroke="#cdd9ea"/>
<text x="685" y="161" text-anchor="middle" font-size="10.5" font-weight="700" fill="#326CE5">HTTPS</text>
<rect x="500" y="182" width="300" height="74" rx="14" fill="#f4efff" stroke="#7C5CFF" stroke-width="1.8" filter="url(#soft)"/>
<text x="650" y="210" text-anchor="middle" font-size="15" font-weight="700" fill="#1d2733">Nginx Ingress Controller</text>
<text x="650" y="231" text-anchor="middle" font-size="12" fill="#5b6b7e">Acesso externo · AWS ALB / NLB</text>
<text x="650" y="248" text-anchor="middle" font-size="11" fill="#5b6b7e">reverse proxy · load balancing · health checks</text>
<rect x="24" y="284" width="1252" height="528" rx="16" fill="#f7fafd" stroke="#232F3E" stroke-width="1.4" stroke-dasharray="2 0"/>
<rect x="40" y="296" width="120" height="26" rx="6" fill="#232F3E"/>
<text x="100" y="314" text-anchor="middle" font-size="13" font-weight="700" fill="#ffffff">AWS Cloud</text>
<rect x="48" y="332" width="1204" height="262" rx="14" fill="#ffffff" stroke="#326CE5" stroke-width="1.8"/>
<text x="72" y="362" font-size="15" font-weight="700" fill="#326CE5">☸ Amazon EKS Cluster</text>
<text x="72" y="380" font-size="11.5" fill="#5b6b7e">Kubernetes · namespace toggle</text>
<rect x="858" y="344" width="380" height="40" rx="10" fill="#eef3fb" stroke="#cdd9ea"/>
<text x="1048" y="360" text-anchor="middle" font-size="12" font-weight="700" fill="#1d2733">Managed Node Group — Auto Scaling</text>
<text x="1048" y="376" text-anchor="middle" font-size="11" fill="#5b6b7e">Min 1 · Desired 2 · Max 4</text>
<line x1="650" y1="256" x2="650" y2="406" stroke="#8493a4" stroke-width="1.6"/>
<line x1="180" y1="406" x2="1120" y2="406" stroke="#8493a4" stroke-width="1.6"/>
<line x1="180" y1="406" x2="180" y2="422" stroke="#8493a4" stroke-width="1.6" marker-end="url(#ah-grey)"/>
<rect x="146" y="410" width="68" height="16" rx="8" fill="#ffffff" stroke="#d7e0ec"/>
<text x="180" y="422" text-anchor="middle" font-size="10.5" font-weight="700" fill="#5b6b7e">/auth</text>
<rect x="82.0" y="424" width="196" height="156" rx="12" fill="#ffffff" stroke="#7C5CFF" stroke-width="2" filter="url(#soft)"/>
<rect x="82.0" y="424" width="6" height="156" rx="3" fill="#7C5CFF"/>
<text x="180" y="454" text-anchor="middle" font-size="14.5" font-weight="700" fill="#1d2733">auth-service</text>
<text x="180" y="473" text-anchor="middle" font-size="11.5" fill="#5b6b7e">Autenticação</text>
<line x1="104.0" y1="486" x2="256.0" y2="486" stroke="#e8edf3" stroke-width="1"/>
<circle cx="136" cy="510" r="5.5" fill="#00ADD8"/>
<text x="150" y="514" font-size="12.5" font-weight="600" fill="#1d2733">Go</text>
<rect x="136" y="528" width="88" height="24" rx="12" fill="#f1f5fa" stroke="#d7e0ec"/>
<text x="180" y="544" text-anchor="middle" font-size="12" font-weight="700" fill="#7C5CFF">porta 8001</text>
<line x1="415" y1="406" x2="415" y2="422" stroke="#8493a4" stroke-width="1.6" marker-end="url(#ah-grey)"/>
<rect x="381" y="410" width="68" height="16" rx="8" fill="#ffffff" stroke="#d7e0ec"/>
<text x="415" y="422" text-anchor="middle" font-size="10.5" font-weight="700" fill="#5b6b7e">/flag</text>
<rect x="317.0" y="424" width="196" height="156" rx="12" fill="#ffffff" stroke="#2E9E4F" stroke-width="2" filter="url(#soft)"/>
<rect x="317.0" y="424" width="6" height="156" rx="3" fill="#2E9E4F"/>
<text x="415" y="454" text-anchor="middle" font-size="14.5" font-weight="700" fill="#1d2733">flag-service</text>
<text x="415" y="473" text-anchor="middle" font-size="11.5" fill="#5b6b7e">Gestão de flags</text>
<line x1="339.0" y1="486" x2="491.0" y2="486" stroke="#e8edf3" stroke-width="1"/>
<circle cx="371" cy="510" r="5.5" fill="#3776AB"/>
<text x="385" y="514" font-size="12.5" font-weight="600" fill="#1d2733">Python</text>
<rect x="371" y="528" width="88" height="24" rx="12" fill="#f1f5fa" stroke="#d7e0ec"/>
<text x="415" y="544" text-anchor="middle" font-size="12" font-weight="700" fill="#2E9E4F">porta 8002</text>
<line x1="650" y1="406" x2="650" y2="422" stroke="#8493a4" stroke-width="1.6" marker-end="url(#ah-grey)"/>
<rect x="616" y="410" width="68" height="16" rx="8" fill="#ffffff" stroke="#d7e0ec"/>
<text x="650" y="422" text-anchor="middle" font-size="10.5" font-weight="700" fill="#5b6b7e">/targeting</text>
<rect x="552.0" y="424" width="196" height="156" rx="12" fill="#ffffff" stroke="#E8820C" stroke-width="2" filter="url(#soft)"/>
<rect x="552.0" y="424" width="6" height="156" rx="3" fill="#E8820C"/>
<text x="650" y="454" text-anchor="middle" font-size="14.5" font-weight="700" fill="#1d2733">targeting-service</text>
<text x="650" y="473" text-anchor="middle" font-size="11.5" fill="#5b6b7e">Regras de targeting</text>
<line x1="574.0" y1="486" x2="726.0" y2="486" stroke="#e8edf3" stroke-width="1"/>
<circle cx="606" cy="510" r="5.5" fill="#3776AB"/>
<text x="620" y="514" font-size="12.5" font-weight="600" fill="#1d2733">Python</text>
<rect x="606" y="528" width="88" height="24" rx="12" fill="#f1f5fa" stroke="#d7e0ec"/>
<text x="650" y="544" text-anchor="middle" font-size="12" font-weight="700" fill="#E8820C">porta 8003</text>
<line x1="885" y1="406" x2="885" y2="422" stroke="#8493a4" stroke-width="1.6" marker-end="url(#ah-grey)"/>
<rect x="851" y="410" width="68" height="16" rx="8" fill="#ffffff" stroke="#d7e0ec"/>
<text x="885" y="422" text-anchor="middle" font-size="10.5" font-weight="700" fill="#5b6b7e">/evaluation</text>
<rect x="787.0" y="424" width="196" height="156" rx="12" fill="#ffffff" stroke="#2D5BD7" stroke-width="2" filter="url(#soft)"/>
<rect x="787.0" y="424" width="6" height="156" rx="3" fill="#2D5BD7"/>
<text x="885" y="454" text-anchor="middle" font-size="14.5" font-weight="700" fill="#1d2733">evaluation-service</text>
<text x="885" y="473" text-anchor="middle" font-size="11.5" fill="#5b6b7e">Avaliação de usuários</text>
<line x1="809.0" y1="486" x2="961.0" y2="486" stroke="#e8edf3" stroke-width="1"/>
<circle cx="841" cy="510" r="5.5" fill="#00ADD8"/>
<text x="855" y="514" font-size="12.5" font-weight="600" fill="#1d2733">Go</text>
<rect x="841" y="528" width="88" height="24" rx="12" fill="#f1f5fa" stroke="#d7e0ec"/>
<text x="885" y="544" text-anchor="middle" font-size="12" font-weight="700" fill="#2D5BD7">porta 8004</text>
<line x1="1120" y1="406" x2="1120" y2="422" stroke="#8493a4" stroke-width="1.6" marker-end="url(#ah-grey)"/>
<rect x="1086" y="410" width="68" height="16" rx="8" fill="#ffffff" stroke="#d7e0ec"/>
<text x="1120" y="422" text-anchor="middle" font-size="10.5" font-weight="700" fill="#5b6b7e">/analytics</text>
<rect x="1022.0" y="424" width="196" height="156" rx="12" fill="#ffffff" stroke="#119C9C" stroke-width="2" filter="url(#soft)"/>
<rect x="1022.0" y="424" width="6" height="156" rx="3" fill="#119C9C"/>
<text x="1120" y="454" text-anchor="middle" font-size="14.5" font-weight="700" fill="#1d2733">analytics-service</text>
<text x="1120" y="473" text-anchor="middle" font-size="11.5" fill="#5b6b7e">Métricas e analytics</text>
<line x1="1044.0" y1="486" x2="1196.0" y2="486" stroke="#e8edf3" stroke-width="1"/>
<circle cx="1076" cy="510" r="5.5" fill="#3776AB"/>
<text x="1090" y="514" font-size="12.5" font-weight="600" fill="#1d2733">Python</text>
<rect x="1076" y="528" width="88" height="24" rx="12" fill="#f1f5fa" stroke="#d7e0ec"/>
<text x="1120" y="544" text-anchor="middle" font-size="12" font-weight="700" fill="#119C9C">porta 8005</text>
<text x="72" y="628" font-size="12" font-weight="700" fill="#5b6b7e" letter-spacing="0.5">Data stores · serviços gerenciados AWS</text>
<path d="M 124 664 L 124 720 A 56 12 0 0 0 236 720 L 236 664 A 56 12 0 0 1 124 664 Z" fill="#ffffff" stroke="#2E73B8" stroke-width="2"/>
<ellipse cx="180" cy="664" rx="56" ry="12" fill="#2E73B8" fill-opacity="0.14" stroke="#2E73B8" stroke-width="2"/>
<path d="M 124 689.2 A 56 12 0 0 0 236 689.2" fill="none" stroke="#2E73B8" stroke-width="1" stroke-opacity="0.4"/>
<path d="M 124 704.32 A 56 12 0 0 0 236 704.32" fill="none" stroke="#2E73B8" stroke-width="1" stroke-opacity="0.4"/>
<text x="180" y="750" text-anchor="middle" font-size="13" font-weight="700" fill="#1d2733">RDS PostgreSQL</text>
<text x="180" y="767" text-anchor="middle" font-size="11" fill="#5b6b7e">auth_db</text>
<path d="M 359 664 L 359 720 A 56 12 0 0 0 471 720 L 471 664 A 56 12 0 0 1 359 664 Z" fill="#ffffff" stroke="#2E73B8" stroke-width="2"/>
<ellipse cx="415" cy="664" rx="56" ry="12" fill="#2E73B8" fill-opacity="0.14" stroke="#2E73B8" stroke-width="2"/>
<path d="M 359 689.2 A 56 12 0 0 0 471 689.2" fill="none" stroke="#2E73B8" stroke-width="1" stroke-opacity="0.4"/>
<path d="M 359 704.32 A 56 12 0 0 0 471 704.32" fill="none" stroke="#2E73B8" stroke-width="1" stroke-opacity="0.4"/>
<text x="415" y="750" text-anchor="middle" font-size="13" font-weight="700" fill="#1d2733">RDS PostgreSQL</text>
<text x="415" y="767" text-anchor="middle" font-size="11" fill="#5b6b7e">flags_db</text>
<path d="M 594 664 L 594 720 A 56 12 0 0 0 706 720 L 706 664 A 56 12 0 0 1 594 664 Z" fill="#ffffff" stroke="#2E73B8" stroke-width="2"/>
<ellipse cx="650" cy="664" rx="56" ry="12" fill="#2E73B8" fill-opacity="0.14" stroke="#2E73B8" stroke-width="2"/>
<path d="M 594 689.2 A 56 12 0 0 0 706 689.2" fill="none" stroke="#2E73B8" stroke-width="1" stroke-opacity="0.4"/>
<path d="M 594 704.32 A 56 12 0 0 0 706 704.32" fill="none" stroke="#2E73B8" stroke-width="1" stroke-opacity="0.4"/>
<text x="650" y="750" text-anchor="middle" font-size="13" font-weight="700" fill="#1d2733">RDS PostgreSQL</text>
<text x="650" y="767" text-anchor="middle" font-size="11" fill="#5b6b7e">targeting_db</text>
<path d="M 724 664 L 724 720 A 56 12 0 0 0 836 720 L 836 664 A 56 12 0 0 1 724 664 Z" fill="#ffffff" stroke="#D6453C" stroke-width="2"/>
<ellipse cx="780" cy="664" rx="56" ry="12" fill="#D6453C" fill-opacity="0.14" stroke="#D6453C" stroke-width="2"/>
<path d="M 724 689.2 A 56 12 0 0 0 836 689.2" fill="none" stroke="#D6453C" stroke-width="1" stroke-opacity="0.4"/>
<path d="M 724 704.32 A 56 12 0 0 0 836 704.32" fill="none" stroke="#D6453C" stroke-width="1" stroke-opacity="0.4"/>
<text x="780" y="750" text-anchor="middle" font-size="13" font-weight="700" fill="#1d2733">ElastiCache</text>
<text x="780" y="767" text-anchor="middle" font-size="11" fill="#5b6b7e">Redis · cache in-memory</text>
<rect x="927.0" y="658" width="116" height="68" rx="10" fill="#ffffff" stroke="#C026A8" stroke-width="2"/>
<rect x="927.0" y="658" width="116" height="68" rx="10" fill="#C026A8" fill-opacity="0.10"/>
<line x1="939.0" y1="674" x2="1031.0" y2="674" stroke="#C026A8" stroke-width="3" stroke-linecap="round" stroke-opacity="0.55"/>
<line x1="939.0" y1="690" x2="1031.0" y2="690" stroke="#C026A8" stroke-width="3" stroke-linecap="round" stroke-opacity="0.55"/>
<line x1="939.0" y1="706" x2="1031.0" y2="706" stroke="#C026A8" stroke-width="3" stroke-linecap="round" stroke-opacity="0.55"/>
<text x="985" y="750" text-anchor="middle" font-size="13" font-weight="700" fill="#1d2733">Amazon SQS</text>
<text x="985" y="767" text-anchor="middle" font-size="11" fill="#5b6b7e">fila Standard</text>
<path d="M 1134 664 L 1134 720 A 56 12 0 0 0 1246 720 L 1246 664 A 56 12 0 0 1 1134 664 Z" fill="#ffffff" stroke="#2F5FE0" stroke-width="2"/>
<ellipse cx="1190" cy="664" rx="56" ry="12" fill="#2F5FE0" fill-opacity="0.14" stroke="#2F5FE0" stroke-width="2"/>
<path d="M 1134 689.2 A 56 12 0 0 0 1246 689.2" fill="none" stroke="#2F5FE0" stroke-width="1" stroke-opacity="0.4"/>
<path d="M 1134 704.32 A 56 12 0 0 0 1246 704.32" fill="none" stroke="#2F5FE0" stroke-width="1" stroke-opacity="0.4"/>
<text x="1190" y="750" text-anchor="middle" font-size="13" font-weight="700" fill="#1d2733">DynamoDB</text>
<text x="1190" y="767" text-anchor="middle" font-size="11" fill="#5b6b7e">tabela de analytics</text>
<path d="M 180 580 C 180 616.0, 180 616.0, 180 652" fill="none" stroke="#2E73B8" stroke-width="2" stroke-dasharray="6 5" marker-end="url(#ah-data)"/>
<path d="M 415 580 C 415 616.0, 415 616.0, 415 652" fill="none" stroke="#2E73B8" stroke-width="2" stroke-dasharray="6 5" marker-end="url(#ah-data)"/>
<path d="M 650 580 C 650 616.0, 650 616.0, 650 652" fill="none" stroke="#2E73B8" stroke-width="2" stroke-dasharray="6 5" marker-end="url(#ah-data)"/>
<path d="M 860 580 C 860 616.0, 792 616.0, 792 652" fill="none" stroke="#D6453C" stroke-width="2" stroke-dasharray="6 5" marker-end="url(#ah-data)"/>
<rect x="783.0" y="611" width="44.0" height="16" rx="8" fill="#ffffff" stroke="#e2e8f0"/>
<text x="805" y="623" text-anchor="middle" font-size="10.5" font-weight="600" fill="#D6453C">cache</text>
<path d="M 912 580 C 912 619.0, 958 619.0, 958 658" fill="none" stroke="#C026A8" stroke-width="2" marker-end="url(#ah-event)"/>
<rect x="901.2" y="601" width="101.60000000000001" height="16" rx="8" fill="#ffffff" stroke="#e2e8f0"/>
<text x="952" y="613" text-anchor="middle" font-size="10.5" font-weight="600" fill="#C026A8">produz eventos</text>
<path d="M 1012 658 C 1090 610, 1090 610, 1100 580" fill="none" stroke="#C026A8" stroke-width="2" marker-end="url(#ah-event)"/>
<rect x="1058" y="601" width="98" height="16" rx="8" fill="#ffffff" stroke="#e2e8f0"/>
<text x="1107" y="613" text-anchor="middle" font-size="10.5" font-weight="600" fill="#C026A8">consome eventos</text>
<path d="M 1140 580 C 1140 616.0, 1190 616.0, 1190 652" fill="none" stroke="#2F5FE0" stroke-width="2" stroke-dasharray="6 5" marker-end="url(#ah-data)"/>
<rect x="1168.0" y="611" width="44.0" height="16" rx="8" fill="#ffffff" stroke="#e2e8f0"/>
<text x="1190" y="623" text-anchor="middle" font-size="10.5" font-weight="600" fill="#2F5FE0">grava</text>
<rect x="40" y="836" width="700" height="184" rx="14" fill="#fbfcfe" stroke="#dbe3ec" stroke-width="1.4"/>
<text x="64" y="866" font-size="15" font-weight="700" fill="#1d2733">Escalabilidade automática</text>
<rect x="64" y="884" width="316" height="116" rx="10" fill="#ffffff" stroke="#cfe0d6"/>
<text x="80" y="908" font-size="13" font-weight="700" fill="#2E9E4F">HPA — Horizontal Pod Autoscaler</text>
<text x="80" y="931" font-size="11.5" fill="#1d2733">• evaluation-service — baseado em CPU (~50%)</text>
<text x="80" y="950" font-size="11.5" fill="#1d2733">• analytics-service — baseado em CPU (~50%)</text>
<text x="80" y="973" font-size="10.5" fill="#5b6b7e">Requisito mínimo — Opção A</text>
<rect x="396" y="884" width="320" height="116" rx="10" fill="#ffffff" stroke="#cdd9ea"/>
<text x="412" y="908" font-size="13" font-weight="700" fill="#326CE5">KEDA — Event-driven Autoscaling</text>
<text x="412" y="931" font-size="11.5" fill="#1d2733">• analytics-service — escala 0→N pela fila SQS</text>
<text x="412" y="950" font-size="11.5" fill="#1d2733">  (métrica queueDepth) · mais econômico</text>
<text x="412" y="973" font-size="10.5" fill="#5b6b7e">Requer IRSA para acesso seguro ao SQS — Opção B</text>
<rect x="760" y="836" width="500" height="184" rx="14" fill="#fbfcfe" stroke="#dbe3ec" stroke-width="1.4"/>
<text x="784" y="866" font-size="15" font-weight="700" fill="#1d2733">Legenda</text>
<line x1="784" y1="894" x2="836" y2="894" stroke="#232F3E" stroke-width="2.4" marker-end="url(#ah-dark)"/>
<text x="850" y="898" font-size="12" fill="#1d2733">Tráfego HTTP / requisições</text>
<line x1="784" y1="924" x2="836" y2="924" stroke="#2E73B8" stroke-width="2.4" stroke-dasharray="6 5" marker-end="url(#ah-data)"/>
<text x="850" y="928" font-size="12" fill="#1d2733">Dependência de dados (leitura / escrita)</text>
<line x1="784" y1="954" x2="836" y2="954" stroke="#C026A8" stroke-width="2.4" marker-end="url(#ah-event)"/>
<text x="850" y="958" font-size="12" fill="#1d2733">Fluxo de eventos (mensageria)</text>
<line x1="784" y1="984" x2="836" y2="984" stroke="#8493a4" stroke-width="2.4" marker-end="url(#ah-grey)"/>
<text x="850" y="988" font-size="12" fill="#1d2733">Roteamento do Ingress por path</text>
<text x="1270" y="1056" text-anchor="end" font-size="10" fill="#9aa7b5">ToggleMaster · Fase 2 · EKS us-east-2</text>
</svg>